<svg id="Camada_1" data-name="Camada 1" xmlns="http://www.w3.org/2000/svg" viewBox="0 0 25 25"><defs><style>.cls-1{fill:#5e5e5e;}</style></defs><path class="cls-1" d="M22.62,7.11a3,3,0,0,0-1.73-1.73,5.15,5.15,0,0,0-1.7-.32c-1,0-1.25,0-3.69,0s-2.73,0-3.69,0a5.15,5.15,0,0,0-1.7.32A3,3,0,0,0,8.38,7.11a5.15,5.15,0,0,0-.32,1.7C8,9.77,8,10.06,8,12.5s0,2.73.05,3.69a5.15,5.15,0,0,0,.32,1.7,3,3,0,0,0,1.73,1.73,5.15,5.15,0,0,0,1.7.32c1,0,1.25,0,3.69,0s2.73,0,3.69,0a5.15,5.15,0,0,0,1.7-.32,3,3,0,0,0,1.73-1.73,5.15,5.15,0,0,0,.32-1.7c0-1,0-1.25,0-3.69s0-2.73,0-3.69A5.15,5.15,0,0,0,22.62,7.11ZM15.5,17.19a4.69,4.69,0,1,1,4.69-4.69A4.69,4.69,0,0,1,15.5,17.19Zm4.88-8.47a1.1,1.1,0,1,1,1.09-1.1A1.1,1.1,0,0,1,20.38,8.72Z" transform="translate(-3)"/><path class="cls-1" d="M3,0V25H28V0ZM24.58,16.27a6.44,6.44,0,0,1-.43,2.21,4.62,4.62,0,0,1-2.67,2.67,6.44,6.44,0,0,1-2.21.43c-1,0-1.29.05-3.77.05s-2.79,0-3.77-.05a6.44,6.44,0,0,1-2.21-.43,4.43,4.43,0,0,1-1.62-1,4.59,4.59,0,0,1-1.06-1.62,6.71,6.71,0,0,1-.42-2.21c0-1,0-1.29,0-3.77s0-2.79,0-3.77a6.71,6.71,0,0,1,.42-2.21A4.73,4.73,0,0,1,9.52,3.84a6.71,6.71,0,0,1,2.21-.42c1,0,1.29,0,3.77,0s2.79,0,3.77,0a6.71,6.71,0,0,1,2.21.42A4.59,4.59,0,0,1,23.1,4.9a4.43,4.43,0,0,1,1,1.62,6.44,6.44,0,0,1,.43,2.21c0,1,.05,1.29.05,3.77S24.62,15.29,24.58,16.27Z" transform="translate(-3)"/><path class="cls-1" d="M15.5,9.46a3,3,0,1,0,3,3A3,3,0,0,0,15.5,9.46Z" transform="translate(-3)"/></svg>