<svg id="Camada_1" data-name="Camada 1" xmlns="http://www.w3.org/2000/svg" viewBox="0 0 25 25"><defs><style>.cls-1{fill:#5e5e5e;}</style></defs><path class="cls-1" d="M4.66.66v25h25V.66Zm20,8.74c0,.15,0,.29,0,.45a10.91,10.91,0,0,1-11,11,11.06,11.06,0,0,1-5.93-1.74.1.1,0,0,1,0-.11.12.12,0,0,1,.1-.07,7,7,0,0,0,.91.06,7.55,7.55,0,0,0,4.5-1.47,3.93,3.93,0,0,1-3.41-2.72.1.1,0,0,1,0-.09.12.12,0,0,1,.09,0,3.55,3.55,0,0,0,1.3,0A3.93,3.93,0,0,1,8.47,11v-.05a.08.08,0,0,1,0-.08.07.07,0,0,1,.09,0,3.86,3.86,0,0,0,1.37.44,3.94,3.94,0,0,1-1-5,.14.14,0,0,1,.08,0,.09.09,0,0,1,.08,0,10.8,10.8,0,0,0,7.71,4,3.94,3.94,0,0,1,6.69-3.5A7.46,7.46,0,0,0,26,5.76a.09.09,0,0,1,.1,0s.05.07,0,.1A3.81,3.81,0,0,1,24.7,7.81a7.1,7.1,0,0,0,1.77-.53.09.09,0,0,1,.11,0,.1.1,0,0,1,0,.12A7.77,7.77,0,0,1,24.69,9.4Z" transform="translate(-4.66 -0.66)"/></svg>